# xmcd
#
# Track frame offsets: 
#        150
#        15078
#        28195
#        46134
#        66389
#        88442
#        101528
#        114655
#        132798
#        151711
#
# Disc length: 2395 seconds
#
# Revision: 0
# Processed by: cddbd v1.5.1PL0 Copyright (c) Steve Scherf et al.
# Submitted via: ExactAudioCopy v0.95b1
#
DISCID=7809590a
DTITLE=Laura Cantrell - Humming by the Flowered Vine
DYEAR=1900
DGENRE=
TTITLE0=14th Street
TTITLE1=What You Said
TTITLE2=And Still
TTITLE3=Khaki and Corduroy
TTITLE4=Letters
TTITLE5=California Rose
TTITLE6=Wishful Thinking
TTITLE7=Poor Ellen Smith
TTITLE8=Bees
TTITLE9=Old Downtown
EXTD=
EXTT0=
EXTT1=
EXTT2=
EXTT3=
EXTT4=
EXTT5=
EXTT6=
EXTT7=
EXTT8=
EXTT9=
PLAYORDER=
